<mxfile host="app.diagrams.net" modified="2024-02-11T21:03:48.958Z" agent="Mozilla/5.0 (Macintosh; Intel Mac OS X 10_15_7) AppleWebKit/605.1.15 (KHTML, like Gecko) Version/17.3.1 Safari/605.1.15" version="23.1.2" etag="lq1PScS3SKzPGvEzYkEQ" type="github">
  <diagram name="Page-1" id="c3TDZIjDb6OJWlQWg-7e">
    <mxGraphModel>
      <root>
        <mxCell id="0" />
        <mxCell id="1" parent="0" />
      </root>
    </mxGraphModel>
  </diagram>
</mxfile>
